<?xml version="1.0" encoding="UTF-8"?><svg id="DESIGN" xmlns="http://www.w3.org/2000/svg" viewBox="0 0 520 520"><path d="M262.13,1.23l-123.57,112.9H.28v69.93H142.63c16.09,0,28.03-5.33,38.59-15.01L363.1,1.23h-100.96Z"/><path d="M416.18,1.23L205.59,195.55c-17.26,15.82-33.68,24.51-62.96,24.51H.28v69.73H156.31c30.69,0,60.07-11.4,82.72-32.1L519.72,1.23h-103.54Z"/><path d="M257.87,518.77l123.57-112.9h138.29v-69.93h-142.36c-16.09,0-28.03,5.33-38.59,15.01l-181.88,167.82h100.96Z"/><path d="M103.82,518.77l210.59-194.32c17.26-15.82,33.68-24.51,62.96-24.51h142.36v-69.73h-156.04c-30.69,0-60.07,11.4-82.72,32.1L.28,518.77H103.82Z"/></svg>